<svg width="381" height="25" viewBox="0 0 381 25" fill="none" xmlns="http://www.w3.org/2000/svg">
<path d="M1.90589 19.8083V5.26289H10.6843V6.82539H3.66726V11.7402H10.2298V13.3027H3.66726V18.2458H10.7979V19.8083H1.90589ZM13.6317 19.8083V8.89926H15.2511V10.6038H15.3931C15.6204 10.0214 15.9873 9.56924 16.494 9.24727C17.0006 8.92057 17.609 8.75721 18.3192 8.75721C19.0389 8.75721 19.6379 8.92057 20.1161 9.24727C20.5991 9.56924 20.9755 10.0214 21.2454 10.6038H21.359C21.6384 10.0404 22.0574 9.59291 22.6161 9.26147C23.1748 8.9253 23.8448 8.75721 24.6261 8.75721C25.6014 8.75721 26.3993 9.06261 27.0195 9.67341C27.6398 10.2795 27.9499 11.2241 27.9499 12.5072V19.8083H26.2738V12.5072C26.2738 11.7023 26.0536 11.127 25.6133 10.7814C25.1729 10.4357 24.6545 10.2629 24.0579 10.2629C23.2908 10.2629 22.6966 10.4949 22.2752 10.9589C21.8538 11.4182 21.6431 12.0006 21.6431 12.7061V19.8083H19.9386V12.3368C19.9386 11.7165 19.7373 11.217 19.3349 10.8382C18.9324 10.4547 18.4139 10.2629 17.7795 10.2629C17.3439 10.2629 16.9367 10.3789 16.5579 10.6109C16.1838 10.8429 15.8808 11.1649 15.6488 11.5768C15.4215 11.984 15.3079 12.4551 15.3079 12.9902V19.8083H13.6317ZM34.2248 20.064C33.5335 20.064 32.9061 19.9338 32.3427 19.6734C31.7792 19.4083 31.3318 19.0271 31.0004 18.5299C30.6689 18.028 30.5032 17.422 30.5032 16.7118C30.5032 16.0868 30.6263 15.5801 30.8725 15.1919C31.1187 14.7989 31.4478 14.4911 31.8597 14.2686C32.2717 14.046 32.7262 13.8803 33.2234 13.7714C33.7253 13.6578 34.2295 13.5678 34.7362 13.5015C35.399 13.4163 35.9364 13.3524 36.3484 13.3098C36.765 13.2624 37.0681 13.1843 37.2575 13.0754C37.4516 12.9665 37.5487 12.7771 37.5487 12.5072V12.4504C37.5487 11.7496 37.3569 11.2051 36.9734 10.8169C36.5946 10.4286 36.0193 10.2345 35.2475 10.2345C34.4473 10.2345 33.82 10.4097 33.3654 10.7601C32.9109 11.1104 32.5913 11.4845 32.4066 11.8822L30.8157 11.314C31.0998 10.6512 31.4786 10.1351 31.9521 9.76574C32.4303 9.39168 32.9511 9.13127 33.5146 8.98449C34.0827 8.83297 34.6415 8.75721 35.1907 8.75721C35.5411 8.75721 35.9435 8.79983 36.3981 8.88505C36.8574 8.96555 37.3001 9.13363 37.7262 9.38931C38.1571 9.645 38.5146 10.0309 38.7987 10.547C39.0827 11.0631 39.2248 11.7544 39.2248 12.6208V19.8083H37.5487V18.3311H37.4634C37.3498 18.5678 37.1604 18.8211 36.8952 19.091C36.6301 19.3609 36.2773 19.5905 35.837 19.7799C35.3967 19.9693 34.8593 20.064 34.2248 20.064ZM34.4805 18.5583C35.1433 18.5583 35.7021 18.4281 36.1566 18.1677C36.6159 17.9073 36.9615 17.5711 37.1935 17.1592C37.4303 16.7473 37.5487 16.314 37.5487 15.8595V14.3254C37.4776 14.4106 37.3214 14.4887 37.0799 14.5598C36.8432 14.6261 36.5685 14.6852 36.256 14.7373C35.9483 14.7847 35.6476 14.8273 35.354 14.8652C35.0652 14.8983 34.8308 14.9267 34.6509 14.9504C34.2153 15.0072 33.8081 15.0995 33.4293 15.2274C33.0553 15.3505 32.7522 15.5375 32.5202 15.7885C32.293 16.0347 32.1793 16.3708 32.1793 16.797C32.1793 17.3794 32.3948 17.8197 32.8256 18.118C33.2612 18.4116 33.8129 18.5583 34.4805 18.5583ZM42.2841 19.8083V8.89926H43.9602V19.8083H42.2841ZM43.1364 7.08108C42.8097 7.08108 42.5279 6.96981 42.2912 6.74727C42.0592 6.52473 41.9432 6.25721 41.9432 5.94471C41.9432 5.63221 42.0592 5.36469 42.2912 5.14216C42.5279 4.91962 42.8097 4.80835 43.1364 4.80835C43.4631 4.80835 43.7424 4.91962 43.9744 5.14216C44.2112 5.36469 44.3295 5.63221 44.3295 5.94471C44.3295 6.25721 44.2112 6.52473 43.9744 6.74727C43.7424 6.96981 43.4631 7.08108 43.1364 7.08108ZM48.7063 5.26289V19.8083H47.0302V5.26289H48.7063Z" fill="#D1D1D1"/>
<mask id="mask0_310_1293" style="mask-type:alpha" maskUnits="userSpaceOnUse" x="356" y="0" width="25" height="25">
<rect x="356.145" y="0.80835" width="24" height="24" fill="#D9D9D9"/>
</mask>
<g mask="url(#mask0_310_1293)">
<path d="M360.145 20.8083C359.595 20.8083 359.124 20.6125 358.732 20.2208C358.34 19.8292 358.145 19.3583 358.145 18.8083V6.80835C358.145 6.25835 358.34 5.78752 358.732 5.39585C359.124 5.00418 359.595 4.80835 360.145 4.80835H376.145C376.695 4.80835 377.165 5.00418 377.557 5.39585C377.949 5.78752 378.145 6.25835 378.145 6.80835V18.8083C378.145 19.3583 377.949 19.8292 377.557 20.2208C377.165 20.6125 376.695 20.8083 376.145 20.8083H360.145ZM376.145 8.80835L368.67 13.4833C368.586 13.5333 368.499 13.5709 368.407 13.5958C368.315 13.6208 368.228 13.6333 368.145 13.6333C368.061 13.6333 367.974 13.6208 367.882 13.5958C367.79 13.5709 367.703 13.5333 367.62 13.4833L360.145 8.80835V18.8083H376.145V8.80835ZM368.145 11.8083L376.145 6.80835H360.145L368.145 11.8083ZM360.145 9.05835V7.58335V7.60835V7.59585V9.05835Z" fill="#A8A8A8"/>
</g>
</svg>
