<svg width="381" height="25" viewBox="0 0 381 25" fill="none" xmlns="http://www.w3.org/2000/svg">
<path d="M1.90589 19.8083V5.26289H6.82067C7.96177 5.26289 8.89453 5.46886 9.61896 5.88079C10.3481 6.28799 10.8879 6.8396 11.2383 7.53562C11.5887 8.23164 11.7638 9.00816 11.7638 9.86517C11.7638 10.7222 11.5887 11.5011 11.2383 12.2018C10.8926 12.9026 10.3576 13.4613 9.63317 13.878C8.90874 14.2899 7.98071 14.4958 6.84908 14.4958H3.32635V12.9333H6.79226C7.57351 12.9333 8.20088 12.7984 8.67436 12.5285C9.14785 12.2586 9.49112 11.8941 9.70419 11.4348C9.92199 10.9708 10.0309 10.4476 10.0309 9.86517C10.0309 9.28278 9.92199 8.76195 9.70419 8.30267C9.49112 7.84339 9.14548 7.48354 8.66726 7.22312C8.18904 6.95797 7.55457 6.82539 6.76385 6.82539H3.66726V19.8083H1.90589ZM17.5842 20.064C16.8929 20.064 16.2655 19.9338 15.7021 19.6734C15.1386 19.4083 14.6912 19.0271 14.3597 18.5299C14.0283 18.028 13.8626 17.422 13.8626 16.7118C13.8626 16.0868 13.9857 15.5801 14.2319 15.1919C14.4781 14.7989 14.8072 14.4911 15.2191 14.2686C15.631 14.046 16.0856 13.8803 16.5827 13.7714C17.0846 13.6578 17.5889 13.5678 18.0955 13.5015C18.7584 13.4163 19.2958 13.3524 19.7077 13.3098C20.1244 13.2624 20.4274 13.1843 20.6168 13.0754C20.811 12.9665 20.908 12.7771 20.908 12.5072V12.4504C20.908 11.7496 20.7163 11.2051 20.3327 10.8169C19.954 10.4286 19.3787 10.2345 18.6069 10.2345C17.8067 10.2345 17.1793 10.4097 16.7248 10.7601C16.2702 11.1104 15.9506 11.4845 15.766 11.8822L14.1751 11.314C14.4592 10.6512 14.8379 10.1351 15.3114 9.76574C15.7897 9.39168 16.3105 9.13127 16.8739 8.98449C17.4421 8.83297 18.0008 8.75721 18.5501 8.75721C18.9004 8.75721 19.3029 8.79983 19.7575 8.88505C20.2167 8.96555 20.6594 9.13363 21.0856 9.38931C21.5165 9.645 21.8739 10.0309 22.158 10.547C22.4421 11.0631 22.5842 11.7544 22.5842 12.6208V19.8083H20.908V18.3311H20.8228C20.7092 18.5678 20.5198 18.8211 20.2546 19.091C19.9895 19.3609 19.6367 19.5905 19.1964 19.7799C18.756 19.9693 18.2186 20.064 17.5842 20.064ZM17.8398 18.5583C18.5027 18.5583 19.0614 18.4281 19.516 18.1677C19.9753 17.9073 20.3209 17.5711 20.5529 17.1592C20.7897 16.7473 20.908 16.314 20.908 15.8595V14.3254C20.837 14.4106 20.6808 14.4887 20.4393 14.5598C20.2025 14.6261 19.9279 14.6852 19.6154 14.7373C19.3076 14.7847 19.007 14.8273 18.7134 14.8652C18.4246 14.8983 18.1902 14.9267 18.0103 14.9504C17.5747 15.0072 17.1675 15.0995 16.7887 15.2274C16.4147 15.3505 16.1116 15.5375 15.8796 15.7885C15.6523 16.0347 15.5387 16.3708 15.5387 16.797C15.5387 17.3794 15.7541 17.8197 16.185 18.118C16.6206 18.4116 17.1722 18.5583 17.8398 18.5583ZM33.3707 11.3424L31.8651 11.7686C31.7704 11.5176 31.6307 11.2738 31.446 11.037C31.2661 10.7956 31.0199 10.5967 30.7074 10.4405C30.3949 10.2842 29.9948 10.2061 29.5071 10.2061C28.8395 10.2061 28.2831 10.36 27.8381 10.6677C27.3977 10.9708 27.1776 11.3566 27.1776 11.8254C27.1776 12.2421 27.3291 12.5711 27.6321 12.8126C27.9351 13.0541 28.4086 13.2553 29.0526 13.4163L30.6719 13.814C31.6473 14.0508 32.3741 14.413 32.8523 14.9007C33.3305 15.3836 33.5696 16.0063 33.5696 16.7686C33.5696 17.3936 33.3897 17.9523 33.0298 18.4447C32.6747 18.9371 32.1776 19.3254 31.5384 19.6095C30.8991 19.8936 30.1558 20.0356 29.3082 20.0356C28.1955 20.0356 27.2746 19.7941 26.5455 19.3112C25.8163 18.8282 25.3546 18.1227 25.1605 17.1947L26.7514 16.797C26.9029 17.3841 27.1894 17.8244 27.6108 18.118C28.0369 18.4116 28.5933 18.5583 29.2798 18.5583C30.0611 18.5583 30.6813 18.3926 31.1406 18.0612C31.6046 17.725 31.8366 17.3226 31.8366 16.8538C31.8366 16.475 31.7041 16.1578 31.4389 15.9021C31.1738 15.6417 30.7666 15.4476 30.2173 15.3197L28.3991 14.8936C27.4001 14.6568 26.6662 14.2899 26.1974 13.7927C25.7334 13.2908 25.5014 12.6635 25.5014 11.9106C25.5014 11.2951 25.6742 10.7506 26.0199 10.2771C26.3703 9.80361 26.8461 9.43193 27.4474 9.16204C28.0535 8.89216 28.7401 8.75721 29.5071 8.75721C30.5866 8.75721 31.4342 8.99396 32.0497 9.46744C32.67 9.94093 33.1103 10.5659 33.3707 11.3424ZM43.82 11.3424L42.3143 11.7686C42.2196 11.5176 42.0799 11.2738 41.8952 11.037C41.7153 10.7956 41.4691 10.5967 41.1566 10.4405C40.8441 10.2842 40.444 10.2061 39.9563 10.2061C39.2887 10.2061 38.7324 10.36 38.2873 10.6677C37.8469 10.9708 37.6268 11.3566 37.6268 11.8254C37.6268 12.2421 37.7783 12.5711 38.0813 12.8126C38.3844 13.0541 38.8578 13.2553 39.5018 13.4163L41.1211 13.814C42.0965 14.0508 42.8233 14.413 43.3015 14.9007C43.7797 15.3836 44.0188 16.0063 44.0188 16.7686C44.0188 17.3936 43.8389 17.9523 43.479 18.4447C43.1239 18.9371 42.6268 19.3254 41.9876 19.6095C41.3484 19.8936 40.605 20.0356 39.7575 20.0356C38.6448 20.0356 37.7238 19.7941 36.9947 19.3112C36.2655 18.8282 35.8039 18.1227 35.6097 17.1947L37.2006 16.797C37.3522 17.3841 37.6386 17.8244 38.06 18.118C38.4862 18.4116 39.0425 18.5583 39.729 18.5583C40.5103 18.5583 41.1306 18.3926 41.5898 18.0612C42.0539 17.725 42.2859 17.3226 42.2859 16.8538C42.2859 16.475 42.1533 16.1578 41.8881 15.9021C41.623 15.6417 41.2158 15.4476 40.6665 15.3197L38.8484 14.8936C37.8493 14.6568 37.1154 14.2899 36.6467 13.7927C36.1826 13.2908 35.9506 12.6635 35.9506 11.9106C35.9506 11.2951 36.1235 10.7506 36.4691 10.2771C36.8195 9.80361 37.2953 9.43193 37.8967 9.16204C38.5027 8.89216 39.1893 8.75721 39.9563 8.75721C41.0359 8.75721 41.8834 8.99396 42.4989 9.46744C43.1192 9.94093 43.5595 10.5659 43.82 11.3424ZM49.0135 19.8083L45.6896 8.89926H47.451L49.8089 17.2515H49.9226L52.2521 8.89926H54.0419L56.343 17.2231H56.4567L58.8146 8.89926H60.576L57.2521 19.8083H55.6044L53.218 11.4277H53.0476L50.6612 19.8083H49.0135ZM66.8526 20.0356C65.8678 20.0356 65.0037 19.8012 64.2603 19.3325C63.5217 18.8637 62.944 18.208 62.5273 17.3652C62.1154 16.5224 61.9094 15.5375 61.9094 14.4106C61.9094 13.2743 62.1154 12.2823 62.5273 11.4348C62.944 10.5872 63.5217 9.92909 64.2603 9.46034C65.0037 8.99159 65.8678 8.75721 66.8526 8.75721C67.8375 8.75721 68.6992 8.99159 69.4379 9.46034C70.1812 9.92909 70.7589 10.5872 71.1708 11.4348C71.5875 12.2823 71.7958 13.2743 71.7958 14.4106C71.7958 15.5375 71.5875 16.5224 71.1708 17.3652C70.7589 18.208 70.1812 18.8637 69.4379 19.3325C68.6992 19.8012 67.8375 20.0356 66.8526 20.0356ZM66.8526 18.5299C67.6007 18.5299 68.2163 18.3382 68.6992 17.9547C69.1822 17.5711 69.5397 17.0669 69.7717 16.4419C70.0037 15.8169 70.1197 15.1398 70.1197 14.4106C70.1197 13.6815 70.0037 13.002 69.7717 12.3723C69.5397 11.7425 69.1822 11.2335 68.6992 10.8453C68.2163 10.457 67.6007 10.2629 66.8526 10.2629C66.1045 10.2629 65.489 10.457 65.006 10.8453C64.5231 11.2335 64.1656 11.7425 63.9336 12.3723C63.7016 13.002 63.5856 13.6815 63.5856 14.4106C63.5856 15.1398 63.7016 15.8169 63.9336 16.4419C64.1656 17.0669 64.5231 17.5711 65.006 17.9547C65.489 18.3382 66.1045 18.5299 66.8526 18.5299ZM74.3544 19.8083V8.89926H75.9737V10.547H76.0874C76.2862 10.0072 76.6461 9.56924 77.1669 9.23306C77.6877 8.89689 78.2749 8.7288 78.9283 8.7288C79.0514 8.7288 79.2053 8.73117 79.3899 8.73591C79.5746 8.74064 79.7143 8.74774 79.8089 8.75721V10.4618C79.7521 10.4476 79.6219 10.4262 79.4183 10.3978C79.2195 10.3647 79.0088 10.3481 78.7862 10.3481C78.2559 10.3481 77.7824 10.4594 77.3658 10.6819C76.9538 10.8997 76.6271 11.2028 76.3857 11.591C76.1489 11.9745 76.0305 12.4125 76.0305 12.9049V19.8083H74.3544ZM85.5831 20.0356C84.674 20.0356 83.8714 19.806 83.1754 19.3467C82.4794 18.8827 81.9349 18.2293 81.5419 17.3865C81.1489 16.5389 80.9524 15.5375 80.9524 14.3822C80.9524 13.2364 81.1489 12.2421 81.5419 11.3993C81.9349 10.5565 82.4818 9.90541 83.1825 9.44613C83.8833 8.98685 84.6929 8.75721 85.6115 8.75721C86.3217 8.75721 86.8828 8.87558 87.2947 9.11233C87.7114 9.34433 88.0286 9.60949 88.2464 9.90778C88.469 10.2013 88.6418 10.4428 88.7649 10.6322H88.907V5.26289H90.5831V19.8083H88.9638V18.1322H88.7649C88.6418 18.3311 88.4666 18.582 88.2393 18.8851C88.0121 19.1833 87.6877 19.4509 87.2663 19.6876C86.8449 19.9196 86.2839 20.0356 85.5831 20.0356ZM85.8104 18.5299C86.4827 18.5299 87.0509 18.3548 87.5149 18.0044C87.9789 17.6493 88.3317 17.1592 88.5732 16.5342C88.8146 15.9045 88.9354 15.1777 88.9354 14.3538C88.9354 13.5394 88.817 12.8268 88.5803 12.216C88.3435 11.6005 87.9931 11.1223 87.5291 10.7814C87.0651 10.4357 86.4922 10.2629 85.8104 10.2629C85.1001 10.2629 84.5083 10.4452 84.0348 10.8098C83.5661 11.1696 83.2133 11.6597 82.9766 12.2799C82.7446 12.8955 82.6286 13.5868 82.6286 14.3538C82.6286 15.1303 82.7469 15.8358 82.9837 16.4703C83.2251 17.1 83.5803 17.6019 84.049 17.976C84.5225 18.3453 85.1096 18.5299 85.8104 18.5299Z" fill="#D1D1D1"/>
<mask id="mask0_310_1294" style="mask-type:alpha" maskUnits="userSpaceOnUse" x="356" y="0" width="25" height="25">
<rect x="356.145" y="0.80835" width="24" height="24" fill="#D9D9D9"/>
</mask>
<g mask="url(#mask0_310_1294)">
<path d="M362.145 22.8083C361.595 22.8083 361.124 22.6125 360.732 22.2208C360.34 21.8292 360.145 21.3583 360.145 20.8083V10.8083C360.145 10.2583 360.34 9.78752 360.732 9.39585C361.124 9.00418 361.595 8.80835 362.145 8.80835H363.145V6.80835C363.145 5.42502 363.632 4.24585 364.607 3.27085C365.582 2.29585 366.761 1.80835 368.145 1.80835C369.528 1.80835 370.707 2.29585 371.682 3.27085C372.657 4.24585 373.145 5.42502 373.145 6.80835V8.80835H374.145C374.695 8.80835 375.165 9.00418 375.557 9.39585C375.949 9.78752 376.145 10.2583 376.145 10.8083V20.8083C376.145 21.3583 375.949 21.8292 375.557 22.2208C375.165 22.6125 374.695 22.8083 374.145 22.8083H362.145ZM362.145 20.8083H374.145V10.8083H362.145V20.8083ZM368.145 17.8083C368.695 17.8083 369.165 17.6125 369.557 17.2208C369.949 16.8292 370.145 16.3583 370.145 15.8083C370.145 15.2583 369.949 14.7875 369.557 14.3959C369.165 14.0042 368.695 13.8083 368.145 13.8083C367.595 13.8083 367.124 14.0042 366.732 14.3959C366.34 14.7875 366.145 15.2583 366.145 15.8083C366.145 16.3583 366.34 16.8292 366.732 17.2208C367.124 17.6125 367.595 17.8083 368.145 17.8083ZM365.145 8.80835H371.145V6.80835C371.145 5.97502 370.853 5.26668 370.27 4.68335C369.686 4.10002 368.978 3.80835 368.145 3.80835C367.311 3.80835 366.603 4.10002 366.02 4.68335C365.436 5.26668 365.145 5.97502 365.145 6.80835V8.80835Z" fill="#A8A8A8"/>
</g>
</svg>
